<?xml version="1.0" encoding="UTF-8" standalone="no"?>
<!-- Created with Inkscape (http://www.inkscape.org/) -->

<svg
   width="67.683075mm"
   height="66.06012mm"
   viewBox="0 0 67.683075 66.06012"
   version="1.1"
   id="svg5"
   xml:space="preserve"
   inkscape:version="1.2.2 (732a01da63, 2022-12-09)"
   sodipodi:docname="estacion_meteorologica.svg"
   xmlns:inkscape="http://www.inkscape.org/namespaces/inkscape"
   xmlns:sodipodi="http://sodipodi.sourceforge.net/DTD/sodipodi-0.dtd"
   xmlns="http://www.w3.org/2000/svg"
   xmlns:svg="http://www.w3.org/2000/svg"><sodipodi:namedview
     id="namedview7"
     pagecolor="#505050"
     bordercolor="#eeeeee"
     borderopacity="1"
     inkscape:showpageshadow="0"
     inkscape:pageopacity="0"
     inkscape:pagecheckerboard="0"
     inkscape:deskcolor="#505050"
     inkscape:document-units="mm"
     showgrid="false"
     inkscape:zoom="1.6302541"
     inkscape:cx="95.077203"
     inkscape:cy="131.57458"
     inkscape:window-width="1600"
     inkscape:window-height="822"
     inkscape:window-x="-8"
     inkscape:window-y="-8"
     inkscape:window-maximized="1"
     inkscape:current-layer="layer1" /><defs
     id="defs2" /><g
     inkscape:label="Capa 1"
     inkscape:groupmode="layer"
     id="layer1"
     transform="translate(-65.088585,-107.72328)"><ellipse
       style="fill:#ffffff;fill-opacity:0.90876561;stroke:none;stroke-width:0.694257"
       id="path518"
       cx="98.930122"
       cy="140.75334"
       rx="33.841537"
       ry="33.03006" /><g
       id="g464"
       style="fill:#000000"><path
         style="fill:#000000;stroke-width:0.264583"
         d="m 89.764325,163.21797 c -0.09889,-0.0989 -0.179806,-0.63775 -0.179806,-1.19747 v -1.01766 l 9.194271,0.0696 9.19427,0.0696 v 1.05833 1.05833 l -9.014465,0.0696 c -4.957955,0.0383 -9.095377,-0.0113 -9.19427,-0.11025 z m 7.02071,-5.70271 0.07553,-2.72327 1.910318,-0.0776 c 2.264407,-0.092 2.261107,-0.097 2.136877,3.25347 l -0.0784,2.11577 -2.059898,0.0774 -2.059903,0.0774 z m -7.8771,-3.9902 c -0.07195,-0.18749 -0.09798,-2.30085 -0.05784,-4.69636 l 0.07297,-4.35546 9.855729,-0.0694 9.855726,-0.0694 v 4.76572 4.76572 h -9.797883 c -7.749931,0 -9.82523,-0.0713 -9.928698,-0.34088 z m 4.963974,-2.2388 0.07824,-1.78594 2.170486,-0.0767 2.170482,-0.0766 0.07848,1.77535 c 0.109093,2.46809 0.68812,2.60071 0.79358,0.18176 l 0.07864,-1.80382 2.170483,-0.0767 2.17048,-0.0766 0.0785,1.77535 c 0.1091,2.46809 0.68813,2.60071 0.79359,0.18176 l 0.0786,-1.80382 1.52135,-0.0794 c 0.83674,-0.0436 1.52135,-0.18653 1.52135,-0.31753 0,-0.13099 -0.68461,-0.27388 -1.52135,-0.31752 l -1.52135,-0.0793 -0.0786,-1.80382 c -0.10546,-2.41895 -0.68449,-2.28633 -0.79359,0.18176 l -0.0785,1.77535 -2.17048,-0.0766 -2.170483,-0.0767 -0.07864,-1.80382 c -0.10546,-2.41895 -0.684487,-2.28633 -0.79358,0.18176 l -0.07848,1.77535 -2.170482,-0.0766 -2.170486,-0.0767 -0.07864,-1.80382 c -0.105198,-2.41296 -0.684329,-2.28794 -0.793343,0.17126 l -0.07823,1.76485 h -1.575411 c -0.873885,0 -1.575411,0.11782 -1.575411,0.26458 0,0.147 0.705556,0.26459 1.5875,0.26459 h 1.587499 v 1.67569 c 0,0.92164 0.07937,1.75507 0.17639,1.85209 0.43783,0.43783 0.598615,0.0524 0.671417,-1.60955 z m -17.514087,-6.92328 c -0.27816,-0.18638 -0.422285,-0.87819 -0.488998,-2.34723 -0.1352,-2.97715 -0.151785,-2.96647 4.60647,-2.96647 h 3.817559 v -0.92604 c 0,-0.64676 -0.119693,-0.92605 -0.396875,-0.92605 -0.246945,0 -0.396875,-0.24988 -0.396875,-0.66145 0,-0.62538 0.07937,-0.66146 1.455208,-0.66146 1.375833,0 1.455208,0.0361 1.455208,0.66146 0,0.41157 -0.14993,0.66145 -0.396875,0.66145 -0.276468,0 -0.396875,0.27832 -0.396875,0.91738 v 0.91738 l 2.976563,0.0748 c 2.436196,0.0612 2.976562,0.14686 2.976562,0.47168 0,0.32455 -0.536747,0.41046 -2.945164,0.4714 l -2.945163,0.0745 -0.157076,0.78538 c -0.208043,1.04021 -0.927377,1.03492 -1.136034,-0.008 -0.253448,-1.26724 -0.963778,-0.98535 -3.392436,1.34626 -1.826272,1.7533 -2.41085,2.16166 -3.234939,2.25982 -0.55322,0.0659 -1.183336,7.9e-4 -1.40026,-0.14446 z m 20.687947,-1.13329 c -0.227491,-0.22749 -0.3175,-1.94979 -0.3175,-6.07532 v -5.75782 l 0.946695,-1.99447 c 0.520684,-1.09696 1.037688,-1.99447 1.148903,-1.99447 0.111212,0 0.637699,0.92802 1.169971,2.06227 l 0.967762,2.06228 v 5.49574 c 0,3.28238 -0.11031,5.70186 -0.27389,6.00752 -0.22217,0.41512 -0.56196,0.51177 -1.799166,0.51177 -0.838901,0 -1.66815,-0.14287 -1.842775,-0.3175 z m 13.540081,-2.7159 c -0.39339,-1.02516 0.0367,-1.19993 2.95273,-1.19993 h 2.804 l -0.0837,0.72761 -0.0837,0.7276 -2.71671,0.0754 c -2.24589,0.0624 -2.74373,0.005 -2.87259,-0.33073 z m -0.0515,-2.58899 c 0.0809,-0.5697 0.20691,-0.59854 2.92883,-0.67041 l 2.84427,-0.0751 v 0.67041 0.67041 h -2.92882 c -2.88596,0 -2.92759,-0.009 -2.84428,-0.59531 z m 0.12865,-1.69775 c -0.097,-0.097 -0.17639,-0.39466 -0.17639,-0.66145 0,-0.44097 0.26458,-0.48507 2.91042,-0.48507 h 2.91042 v 0.66146 0.66145 h -2.73403 c -1.50372,0 -2.81341,-0.0794 -2.91042,-0.17639 z m -27.354146,-1.46531 c -0.384479,-0.47931 -1.397242,-2.51957 -1.397242,-2.81481 0.530735,-0.13496 -0.997036,0.11556 0.734831,-3.08411 l 0.722471,-1.32292 h 1.585406 1.585406 l 0.722471,1.32292 c 0.397358,0.7276 0.725252,1.46674 0.728651,1.64252 -0.81173,0.0707 1.057151,-0.17619 -0.727604,3.11998 -0.720733,1.32165 -0.72284,1.32299 -2.200471,1.401 -0.975257,0.0515 -1.572673,-0.0386 -1.753919,-0.26458 z m 26.295816,-0.65135 c -0.097,-0.097 -0.17639,-1.64793 -0.17639,-3.44648 v -3.27008 l 4.0349,0.073 4.03489,0.073 0.0751,3.00484 c 0.0497,1.98895 -0.0283,3.12946 -0.23084,3.37344 -0.23427,0.28228 -1.15544,0.3686 -3.93358,0.3686 -1.99522,0 -3.70705,-0.0794 -3.80406,-0.17639 z m -20.192525,-2.61081 c -0.29737,-0.77493 0.311698,-0.93675 3.237714,-0.86022 2.686228,0.0703 2.887795,0.11248 2.887795,0.60471 0,0.49343 -0.201343,0.53422 -2.981523,0.60402 -2.534171,0.0636 -3.0059,0.0113 -3.143986,-0.34851 z m 12.673945,0.23072 c -0.4656,-0.18787 -0.41156,-0.79547 0.0878,-0.98709 0.23018,-0.0883 1.58482,-0.1606 3.01031,-0.1606 2.03674,0 2.66592,0.0893 2.93791,0.41704 0.28684,0.34562 0.28106,0.4582 -0.0337,0.65741 -0.39266,0.24847 -5.41609,0.30976 -6.00226,0.0732 z m -18.398391,-5.28063 c -0.342622,-0.34262 -0.195922,-1.15873 0.208289,-1.15873 0.277182,0 0.396875,-0.27928 0.396875,-0.92604 v -0.92604 h -1.821654 c -1.659654,0 -1.860884,0.0599 -2.262795,0.67327 -0.644227,0.98321 -1.567141,1.25663 -2.676764,0.793 -2.306722,-0.96381 -1.529522,-4.2003 1.008646,-4.2003 0.597391,0 1.010369,0.22768 1.519763,0.83785 0.654782,0.78432 0.810213,0.83785 2.433062,0.83785 1.714551,0 1.73534,-0.009 1.892346,-0.79375 0.09445,-0.47227 0.32485,-0.79375 0.568854,-0.79375 0.244005,0 0.474401,0.32148 0.568854,0.79375 0.154687,0.77343 0.198381,0.79375 1.707078,0.79375 1.346847,0 1.603037,-0.0835 1.96876,-0.64166 0.476395,-0.72707 1.762027,-1.26771 2.443493,-1.02754 2.185934,0.77038 2.185934,3.62635 0,4.39673 -0.681466,0.24017 -1.967098,-0.30047 -2.443493,-1.02754 -0.367379,-0.56069 -0.61998,-0.64166 -2.001833,-0.64166 h -1.581401 v 0.92604 c 0,0.665 0.117064,0.92604 0.415277,0.92604 0.279321,0 0.387598,0.1949 0.33073,0.59532 -0.07148,0.50326 -0.270169,0.60742 -1.285024,0.67365 -0.660262,0.0431 -1.28534,-0.007 -1.389063,-0.11024 z m 25.740581,-0.49727 v -0.67524 l 4.0349,0.073 c 3.83416,0.0694 4.03489,0.0994 4.03489,0.6022 0,0.50284 -0.20073,0.5328 -4.03489,0.60221 l -4.0349,0.073 z"
         id="path365"
         sodipodi:nodetypes="cscccccccccccccccccccccccsccccccsscccccccscccccccsscccsscssscsscccsscsssssssccsccscssccsscssccscsscscccccccscccsccsscccscccccccscccccscccccsccccsccccssccccsscscsssscsssscssscssccccccsccc" /></g></g></svg>
